<svg width="44" height="42" viewBox="0 0 44 42" fill="none" xmlns="http://www.w3.org/2000/svg">
<rect width="44" height="41.5" rx="20.75" fill="#FFF8C5"/>
<path d="M12 14.1875C12 12.98 12.98 12 14.1875 12H29.8125C31.02 12 32 12.98 32 14.1875V16.0625C32 16.6427 31.7695 17.1991 31.3593 17.6093C30.9491 18.0195 30.3927 18.25 29.8125 18.25H14.1875C13.6073 18.25 13.0509 18.0195 12.6407 17.6093C12.2305 17.1991 12 16.6427 12 16.0625V14.1875ZM14.1875 19.5C14.4361 19.5 14.6746 19.5988 14.8504 19.7746C15.0262 19.9504 15.125 20.1889 15.125 20.4375V27.3125C15.125 27.485 15.265 27.625 15.4375 27.625H28.5625C28.6454 27.625 28.7249 27.5921 28.7835 27.5335C28.8421 27.4749 28.875 27.3954 28.875 27.3125V20.4375C28.875 20.1889 28.9738 19.9504 29.1496 19.7746C29.3254 19.5988 29.5639 19.5 29.8125 19.5C30.0611 19.5 30.2996 19.5988 30.4754 19.7746C30.6512 19.9504 30.75 20.1889 30.75 20.4375V27.3125C30.75 27.8927 30.5195 28.4491 30.1093 28.8593C29.6991 29.2695 29.1427 29.5 28.5625 29.5H15.4375C14.8573 29.5 14.3009 29.2695 13.8907 28.8593C13.4805 28.4491 13.25 27.8927 13.25 27.3125V20.4375C13.25 20.1889 13.3488 19.9504 13.5246 19.7746C13.7004 19.5988 13.9389 19.5 14.1875 19.5ZM14.1875 13.875C14.1046 13.875 14.0251 13.9079 13.9665 13.9665C13.9079 14.0251 13.875 14.1046 13.875 14.1875V16.0625C13.875 16.235 14.015 16.375 14.1875 16.375H29.8125C29.8954 16.375 29.9749 16.3421 30.0335 16.2835C30.0921 16.2249 30.125 16.1454 30.125 16.0625V14.1875C30.125 14.1046 30.0921 14.0251 30.0335 13.9665C29.9749 13.9079 29.8954 13.875 29.8125 13.875H14.1875ZM19.8125 20.75H24.1875C24.4361 20.75 24.6746 20.8488 24.8504 21.0246C25.0262 21.2004 25.125 21.4389 25.125 21.6875C25.125 21.9361 25.0262 22.1746 24.8504 22.3504C24.6746 22.5262 24.4361 22.625 24.1875 22.625H19.8125C19.5639 22.625 19.3254 22.5262 19.1496 22.3504C18.9738 22.1746 18.875 21.9361 18.875 21.6875C18.875 21.4389 18.9738 21.2004 19.1496 21.0246C19.3254 20.8488 19.5639 20.75 19.8125 20.75Z" fill="#9A6700"/>
</svg>
