<svg width="32" height="32" viewBox="0 0 32 32" fill="none" xmlns="http://www.w3.org/2000/svg">
<g id="Icon">
<path id="Vector" d="M6.62644 17.6267C6.81394 17.4394 7.0681 17.3342 7.3331 17.3342C7.59811 17.3342 7.85227 17.4394 8.03977 17.6267L14.6664 24.2533V5C14.6664 4.73478 14.7718 4.48043 14.9593 4.29289C15.1469 4.10536 15.4012 4 15.6664 4C15.9317 4 16.186 4.10536 16.3735 4.29289C16.5611 4.48043 16.6664 4.73478 16.6664 5V24.2533L23.2931 17.6267C23.4153 17.495 23.5708 17.3988 23.7431 17.3481C23.9155 17.2974 24.0983 17.2942 24.2723 17.3387C24.4463 17.3832 24.6052 17.4738 24.732 17.601C24.8589 17.7281 24.9491 17.8872 24.9931 18.0613C25.0377 18.2352 25.0346 18.4178 24.9841 18.59C24.9337 18.7622 24.8377 18.9177 24.7064 19.04L16.3731 27.3733C16.1856 27.5606 15.9314 27.6658 15.6664 27.6658C15.4014 27.6658 15.1473 27.5606 14.9598 27.3733L6.62644 19.04C6.43917 18.8525 6.33398 18.5983 6.33398 18.3333C6.33398 18.0683 6.43917 17.8142 6.62644 17.6267Z" fill="#0969DA"/>
</g>
</svg>
