<svg width="44" height="44" viewBox="0 0 44 44" fill="none" xmlns="http://www.w3.org/2000/svg">
<g id="Icon">
<rect width="44" height="44" rx="22" fill="#DDF4FF"/>
<path id="Vector" d="M19.8125 23.25C20.0611 23.25 20.2996 23.3488 20.4754 23.5246C20.6512 23.7004 20.75 23.9389 20.75 24.1875V26.0625C20.75 26.3111 20.6512 26.5496 20.4754 26.7254C20.2996 26.9012 20.0611 27 19.8125 27C19.5639 27 19.3254 26.9012 19.1496 26.7254C18.9738 26.5496 18.875 26.3111 18.875 26.0625V24.1875C18.875 23.9389 18.9738 23.7004 19.1496 23.5246C19.3254 23.3488 19.5639 23.25 19.8125 23.25ZM25.125 24.1875C25.125 23.9389 25.0262 23.7004 24.8504 23.5246C24.6746 23.3488 24.4361 23.25 24.1875 23.25C23.9389 23.25 23.7004 23.3488 23.5246 23.5246C23.3488 23.7004 23.25 23.9389 23.25 24.1875V26.0625C23.25 26.3111 23.3488 26.5496 23.5246 26.7254C23.7004 26.9012 23.9389 27 24.1875 27C24.4361 27 24.6746 26.9012 24.8504 26.7254C25.0262 26.5496 25.125 26.3111 25.125 26.0625V24.1875Z" fill="#0969DA"/>
<path id="Vector_2" d="M21.825 14.2125C21.8875 14.2787 21.9462 14.3462 22 14.4175C22.0538 14.3462 22.1125 14.2787 22.175 14.2125C23.0263 13.2987 24.3463 13.0875 25.8538 13.2562C27.3913 13.4262 28.535 13.915 29.2588 14.8312C29.9662 15.7262 30.125 16.8487 30.125 17.9375C30.125 18.6525 30.0588 19.3712 29.8075 20.0062L30.0175 21.0537L30.1 21.095C30.671 21.3805 31.1512 21.8195 31.4868 22.3626C31.8224 22.9057 32.0001 23.5315 32 24.17V25.75C32 26.05 31.8925 26.2975 31.805 26.4587C31.7137 26.6225 31.605 26.775 31.4813 26.9162C31.2563 27.1787 30.9762 27.4325 30.725 27.6412C30.4073 27.9059 30.0769 28.1549 29.735 28.3875L29.7163 28.4L29.7087 28.405L29.6737 28.4275C29.4873 28.5503 29.2973 28.6674 29.1038 28.7787C28.72 29 28.1675 29.2912 27.4838 29.5812C26.12 30.16 24.195 30.75 22 30.75C19.805 30.75 17.88 30.16 16.5162 29.5812C15.961 29.3462 15.42 29.0786 14.8962 28.78C14.7027 28.6687 14.5127 28.5515 14.3262 28.4287L14.2912 28.4037L14.2838 28.4L14.265 28.3875C13.9236 28.1547 13.5932 27.9061 13.275 27.6425C13.004 27.4213 12.7512 27.1789 12.5188 26.9175C12.395 26.7764 12.2865 26.6226 12.195 26.4587C12.0717 26.2425 12.0046 25.9988 12 25.75V24.17C11.9999 23.5315 12.1776 22.9057 12.5132 22.3626C12.8488 21.8195 13.329 21.3805 13.9 21.095L13.9837 21.0537L14.1925 20.0062C13.9412 19.3712 13.875 18.6525 13.875 17.9375C13.875 16.85 14.0338 15.725 14.7413 14.8312C15.465 13.915 16.6087 13.4262 18.1462 13.2562C19.6537 13.0887 20.9725 13.2987 21.825 14.2125ZM15.75 21.78V27.1062C15.775 27.1225 15.8038 27.1375 15.8313 27.1537C16.1613 27.3437 16.6437 27.5987 17.2487 27.8562C18.4637 28.3712 20.1325 28.875 22 28.875C23.8675 28.875 25.5375 28.3712 26.75 27.8562C27.265 27.6387 27.7662 27.3875 28.25 27.1062V21.7812L28.2213 21.6362C27.6088 21.8987 26.8775 22 26.0625 22C24.63 22 23.4875 21.59 22.675 20.7612C22.4069 20.4853 22.1797 20.1726 22 19.8325C21.82 20.1687 21.5988 20.4825 21.325 20.7612C20.5125 21.59 19.37 22 17.9375 22C17.1225 22 16.3925 21.8975 15.78 21.6362L15.75 21.78ZM23.5463 15.4912C23.2913 15.7637 23.0975 16.3387 23.2437 17.5087C23.3575 18.4162 23.6225 19.0462 24.0162 19.45C24.39 19.83 24.9963 20.125 26.0638 20.125C27.2163 20.125 27.6637 19.8762 27.8663 19.65C28.09 19.4 28.2513 18.9275 28.2513 17.9375C28.2513 16.9812 28.0975 16.385 27.7887 15.9937C27.4975 15.6237 26.9225 15.2612 25.6475 15.1187C24.3425 14.9737 23.7875 15.2325 23.5463 15.4912ZM20.4563 15.4912C20.215 15.2325 19.66 14.9737 18.355 15.1187C17.08 15.2612 16.505 15.6237 16.2137 15.9937C15.905 16.385 15.7512 16.9812 15.7512 17.9375C15.7512 18.9275 15.9125 19.4 16.1363 19.65C16.3387 19.8762 16.7863 20.125 17.9387 20.125C19.0062 20.125 19.6125 19.83 19.9862 19.45C20.38 19.0462 20.645 18.4162 20.7587 17.5087C20.905 16.3387 20.7113 15.7637 20.4563 15.4912Z" fill="#0969DA"/>
</g>
</svg>
