<svg width="16" height="16" viewBox="0 0 16 16" fill="none" xmlns="http://www.w3.org/2000/svg">
<g id="octicon_chevron-right_16">
<path id="Vector" d="M6.21983 3.21995C6.36045 3.0795 6.55108 3.00061 6.74983 3.00061C6.94858 3.00061 7.1392 3.0795 7.27983 3.21995L11.5298 7.46995C11.6703 7.61058 11.7492 7.8012 11.7492 7.99995C11.7492 8.1987 11.6703 8.38932 11.5298 8.52995L7.27983 12.78C7.13757 12.9124 6.94951 12.9845 6.7552 12.9811C6.56088 12.9777 6.37543 12.8992 6.23783 12.762C6.10059 12.6243 6.02203 12.4389 6.01867 12.2446C6.01532 12.0503 6.08742 11.8622 6.21983 11.72L9.93983 7.99995L6.21983 4.27995C6.07938 4.13933 6.00049 3.9487 6.00049 3.74995C6.00049 3.5512 6.07938 3.36058 6.21983 3.21995Z" fill="white"/>
</g>
</svg>
