<svg width="16" height="16" viewBox="0 0 16 16" fill="none" xmlns="http://www.w3.org/2000/svg">
<g id="octicon_chevron-right_16">
<path id="Vector" d="M6.21983 3.22001C6.36045 3.07956 6.55108 3.00067 6.74983 3.00067C6.94858 3.00067 7.1392 3.07956 7.27983 3.22001L11.5298 7.47001C11.6703 7.61064 11.7492 7.80126 11.7492 8.00001C11.7492 8.19876 11.6703 8.38939 11.5298 8.53001L7.27983 12.78C7.13757 12.9124 6.94951 12.9845 6.7552 12.9812C6.56088 12.9778 6.37543 12.8993 6.23783 12.762C6.10059 12.6244 6.02203 12.439 6.01867 12.2446C6.01532 12.0503 6.08742 11.8623 6.21983 11.72L9.93983 8.00001L6.21983 4.28001C6.07938 4.13939 6.00049 3.94876 6.00049 3.75001C6.00049 3.55126 6.07938 3.36064 6.21983 3.22001Z" fill="#57606A"/>
</g>
</svg>
