<svg width="45" height="44" viewBox="0 0 45 44" fill="none" xmlns="http://www.w3.org/2000/svg">
<g id="Icon">
<rect x="0.328125" width="44" height="44" rx="22" fill="#FFEFF7"/>
<path id="Vector" d="M22.3281 12C24.9803 12 27.5238 13.0536 29.3992 14.9289C31.2746 16.8043 32.3281 19.3478 32.3281 22C32.3281 24.6522 31.2746 27.1957 29.3992 29.0711C27.5238 30.9464 24.9803 32 22.3281 32C19.676 32 17.1324 30.9464 15.2571 29.0711C13.3817 27.1957 12.3281 24.6522 12.3281 22C12.3281 19.3478 13.3817 16.8043 15.2571 14.9289C17.1324 13.0536 19.676 12 22.3281 12ZM19.5531 22.9375C19.7116 24.7859 20.2946 26.5727 21.2569 28.1588C21.5756 28.6912 21.9344 29.1987 22.3281 29.6775C22.6344 29.3075 23.0169 28.7962 23.3994 28.1588C24.3616 26.5727 24.9447 24.7859 25.1031 22.9375H19.5531ZM25.1031 21.0625C24.9447 19.2141 24.3616 17.4273 23.3994 15.8412C23.0156 15.2037 22.6344 14.6925 22.3281 14.3225C21.9336 14.8013 21.5755 15.3089 21.2569 15.8412C20.2946 17.4273 19.7116 19.2141 19.5531 21.0625H25.1031ZM17.6731 22.9375H14.2569C14.4427 24.5309 15.0956 26.0338 16.1334 27.257C17.1712 28.4803 18.5476 29.3694 20.0894 29.8125C19.9356 29.5863 19.7894 29.3563 19.6494 29.1225C18.7556 27.6325 17.8531 25.53 17.6731 22.9375ZM14.2569 21.0625H17.6731C17.8531 18.47 18.7556 16.3675 19.6481 14.8775C19.7981 14.6313 19.9444 14.4012 20.0894 14.1875C18.5476 14.6306 17.1712 15.5197 16.1334 16.743C15.0956 17.9662 14.4427 19.4691 14.2569 21.0625ZM26.9831 22.9375C26.8031 25.53 25.9006 27.6325 25.0081 29.1225C24.8581 29.3687 24.7119 29.5987 24.5669 29.8125C26.1087 29.3694 27.485 28.4803 28.5228 27.257C29.5606 26.0338 30.2135 24.5309 30.3994 22.9375H26.9831ZM30.3994 21.0625C30.2135 19.4691 29.5606 17.9662 28.5228 16.743C27.485 15.5197 26.1087 14.6306 24.5669 14.1875C24.7206 14.4137 24.8669 14.6437 25.0081 14.8775C25.9006 16.3675 26.8031 18.47 26.9831 21.0625H30.3994Z" fill="#BF3989"/>
</g>
</svg>
