<svg width="44" height="44" viewBox="0 0 44 44" fill="none" xmlns="http://www.w3.org/2000/svg">
<g id="Icon">
<rect width="44" height="44" rx="22" fill="#DAFBE1"/>
<path id="Vector" d="M22.6663 12.1663L29.2288 14.2663C29.6704 14.4075 30.0558 14.6855 30.3293 15.06C30.6027 15.4346 30.75 15.8863 30.75 16.3501V20.7501C30.75 22.7076 30.35 24.7276 29.1212 26.6026C27.8925 28.4751 25.89 30.1188 22.8313 31.4213C22.5684 31.5333 22.2857 31.591 22 31.591C21.7143 31.591 21.4316 31.5333 21.1687 31.4213C18.11 30.1188 16.1075 28.4751 14.8787 26.6026C13.65 24.7276 13.25 22.7076 13.25 20.7501V16.3501C13.25 15.8863 13.3973 15.4346 13.6707 15.06C13.9442 14.6855 14.3296 14.4075 14.7713 14.2663L21.3337 12.1663C21.7671 12.0276 22.2329 12.0276 22.6663 12.1663ZM21.9037 13.9526L21.905 13.9538L15.3425 16.0538C15.2797 16.074 15.2249 16.1136 15.1858 16.1668C15.1468 16.2199 15.1255 16.2841 15.125 16.3501V20.7501C15.125 22.4501 15.4688 24.0826 16.4462 25.5738C17.4262 27.0663 19.0975 28.5013 21.9037 29.6963C21.9342 29.7093 21.9669 29.716 22 29.716C22.0331 29.716 22.0658 29.7093 22.0962 29.6963C24.9025 28.5001 26.5737 27.0676 27.5538 25.5751C28.5312 24.0826 28.875 22.4476 28.875 20.7501V16.3501C28.875 16.2838 28.8539 16.2193 28.8148 16.1658C28.7757 16.1124 28.7206 16.0727 28.6575 16.0526L22.095 13.9526C22.0328 13.9326 21.9659 13.9326 21.9037 13.9526ZM23.875 20.1251C23.875 20.7951 23.5175 21.4151 22.9375 21.7501V24.8126C22.9375 25.0612 22.8387 25.2997 22.6629 25.4755C22.4871 25.6513 22.2486 25.7501 22 25.7501C21.7514 25.7501 21.5129 25.6513 21.3371 25.4755C21.1613 25.2997 21.0625 25.0612 21.0625 24.8126V21.7501C20.7775 21.5855 20.5408 21.3489 20.3763 21.0639C20.2117 20.7789 20.1251 20.4556 20.125 20.1266C20.1249 19.7975 20.2115 19.4742 20.376 19.1892C20.5404 18.9041 20.777 18.6674 21.062 18.5028C21.3469 18.3381 21.6702 18.2514 21.9992 18.2513C22.3283 18.2511 22.6516 18.3376 22.9367 18.502C23.2218 18.6664 23.4586 18.903 23.6233 19.1879C23.788 19.4728 23.8748 19.796 23.875 20.1251Z" fill="#1A7F37"/>
</g>
</svg>
