<svg width="44" height="44" viewBox="0 0 44 44" fill="none" xmlns="http://www.w3.org/2000/svg">
<g id="Icon">
<rect width="44" height="44" rx="22" fill="#DDF4FF"/>
<path id="Vector" d="M14.1875 32C13.6073 32 13.0509 31.7695 12.6407 31.3593C12.2305 30.9491 12 30.3927 12 29.8125V14.1875C12 12.98 12.98 12 14.1875 12H24.8125C26.02 12 27 12.98 27 14.1875V29.8125C27 29.9188 26.9925 30.0225 26.9775 30.125H29.8125C29.8954 30.125 29.9749 30.0921 30.0335 30.0335C30.0921 29.9749 30.125 29.8954 30.125 29.8125V22.3562C30.125 22.3048 30.1124 22.2542 30.0882 22.2089C30.064 22.1635 30.029 22.1248 29.9862 22.0962L28.6675 21.2175C28.5651 21.1492 28.4771 21.0614 28.4086 20.9591C28.3401 20.8568 28.2924 20.7421 28.2683 20.6213C28.2441 20.5006 28.244 20.3763 28.2679 20.2556C28.2918 20.1348 28.3392 20.0199 28.4075 19.9175C28.4758 19.8151 28.5636 19.7271 28.6659 19.6586C28.7682 19.5901 28.8829 19.5424 29.0037 19.5183C29.1244 19.4941 29.2487 19.494 29.3694 19.5179C29.4902 19.5418 29.6051 19.5892 29.7075 19.6575L31.0262 20.5363C31.635 20.9425 32 21.625 32 22.3562V29.8125C32 30.3927 31.7695 30.9491 31.3593 31.3593C30.9491 31.7695 30.3927 32 29.8125 32H25.4375C25.3544 31.9999 25.2716 31.989 25.1913 31.9675C25.0675 31.9888 24.9412 32 24.8125 32H21.0625C20.8139 32 20.5754 31.9012 20.3996 31.7254C20.2238 31.5496 20.125 31.3111 20.125 31.0625V29.5H18.875V31.0625C18.875 31.3111 18.7762 31.5496 18.6004 31.7254C18.4246 31.9012 18.1861 32 17.9375 32H14.1875ZM13.875 29.8125C13.875 29.985 14.015 30.125 14.1875 30.125H17V28.5625C17 28.3139 17.0988 28.0754 17.2746 27.8996C17.4504 27.7238 17.6889 27.625 17.9375 27.625H21.0625C21.3111 27.625 21.5496 27.7238 21.7254 27.8996C21.9012 28.0754 22 28.3139 22 28.5625V30.125H24.8125C24.8954 30.125 24.9749 30.0921 25.0335 30.0335C25.0921 29.9749 25.125 29.8954 25.125 29.8125V14.1875C25.125 14.1046 25.0921 14.0251 25.0335 13.9665C24.9749 13.9079 24.8954 13.875 24.8125 13.875H14.1875C14.1046 13.875 14.0251 13.9079 13.9665 13.9665C13.9079 14.0251 13.875 14.1046 13.875 14.1875V29.8125ZM16.6875 19.5H17.3125C17.5611 19.5 17.7996 19.5988 17.9754 19.7746C18.1512 19.9504 18.25 20.1889 18.25 20.4375C18.25 20.6861 18.1512 20.9246 17.9754 21.1004C17.7996 21.2762 17.5611 21.375 17.3125 21.375H16.6875C16.4389 21.375 16.2004 21.2762 16.0246 21.1004C15.8488 20.9246 15.75 20.6861 15.75 20.4375C15.75 20.1889 15.8488 19.9504 16.0246 19.7746C16.2004 19.5988 16.4389 19.5 16.6875 19.5ZM15.75 16.6875C15.75 16.4389 15.8488 16.2004 16.0246 16.0246C16.2004 15.8488 16.4389 15.75 16.6875 15.75H17.3125C17.5611 15.75 17.7996 15.8488 17.9754 16.0246C18.1512 16.2004 18.25 16.4389 18.25 16.6875C18.25 16.9361 18.1512 17.1746 17.9754 17.3504C17.7996 17.5262 17.5611 17.625 17.3125 17.625H16.6875C16.4389 17.625 16.2004 17.5262 16.0246 17.3504C15.8488 17.1746 15.75 16.9361 15.75 16.6875ZM20.75 20.4375C20.75 20.1889 20.8488 19.9504 21.0246 19.7746C21.2004 19.5988 21.4389 19.5 21.6875 19.5H22.3125C22.5611 19.5 22.7996 19.5988 22.9754 19.7746C23.1512 19.9504 23.25 20.1889 23.25 20.4375C23.25 20.6861 23.1512 20.9246 22.9754 21.1004C22.7996 21.2762 22.5611 21.375 22.3125 21.375H21.6875C21.4389 21.375 21.2004 21.2762 21.0246 21.1004C20.8488 20.9246 20.75 20.6861 20.75 20.4375ZM21.6875 15.75H22.3125C22.5611 15.75 22.7996 15.8488 22.9754 16.0246C23.1512 16.2004 23.25 16.4389 23.25 16.6875C23.25 16.9361 23.1512 17.1746 22.9754 17.3504C22.7996 17.5262 22.5611 17.625 22.3125 17.625H21.6875C21.4389 17.625 21.2004 17.5262 21.0246 17.3504C20.8488 17.1746 20.75 16.9361 20.75 16.6875C20.75 16.4389 20.8488 16.2004 21.0246 16.0246C21.2004 15.8488 21.4389 15.75 21.6875 15.75ZM15.75 24.1875C15.75 23.9389 15.8488 23.7004 16.0246 23.5246C16.2004 23.3488 16.4389 23.25 16.6875 23.25H17.3125C17.5611 23.25 17.7996 23.3488 17.9754 23.5246C18.1512 23.7004 18.25 23.9389 18.25 24.1875C18.25 24.4361 18.1512 24.6746 17.9754 24.8504C17.7996 25.0262 17.5611 25.125 17.3125 25.125H16.6875C16.4389 25.125 16.2004 25.0262 16.0246 24.8504C15.8488 24.6746 15.75 24.4361 15.75 24.1875ZM21.6875 23.25H22.3125C22.5611 23.25 22.7996 23.3488 22.9754 23.5246C23.1512 23.7004 23.25 23.9389 23.25 24.1875C23.25 24.4361 23.1512 24.6746 22.9754 24.8504C22.7996 25.0262 22.5611 25.125 22.3125 25.125H21.6875C21.4389 25.125 21.2004 25.0262 21.0246 24.8504C20.8488 24.6746 20.75 24.4361 20.75 24.1875C20.75 23.9389 20.8488 23.7004 21.0246 23.5246C21.2004 23.3488 21.4389 23.25 21.6875 23.25Z" fill="#0969DA"/>
</g>
</svg>
