<svg width="45" height="42" viewBox="0 0 45 42" fill="none" xmlns="http://www.w3.org/2000/svg">
<g id="Icon">
<rect x="0.664062" y="0.249512" width="43.9984" height="41.5013" rx="20.7506" fill="#FFF8C5"/>
<path id="Vector" d="M22.2795 12.332C22.4001 12.2776 22.5309 12.2495 22.6633 12.2495C22.7956 12.2495 22.9264 12.2776 23.047 12.332L32.1095 16.3945C32.2743 16.4686 32.4141 16.5887 32.5122 16.7404C32.6103 16.8921 32.6625 17.0689 32.6625 17.2495C32.6625 17.4302 32.6103 17.6069 32.5122 17.7586C32.4141 17.9103 32.2743 18.0304 32.1095 18.1045L28.9133 19.5383V23.0308C28.9133 24.3108 27.9008 25.217 26.8383 25.747C25.722 26.3058 24.2445 26.6245 22.6633 26.6245C22.3158 26.6245 21.9758 26.6095 21.6433 26.5795C21.3976 26.5549 21.1716 26.4344 21.0143 26.2442C20.857 26.054 20.781 25.8094 20.8029 25.5636C20.8248 25.3177 20.9428 25.0904 21.1312 24.9309C21.3197 24.7715 21.5634 24.6928 21.8095 24.712C22.0845 24.737 22.372 24.7495 22.6633 24.7495C24.0158 24.7495 25.1945 24.4733 26.0008 24.0708C26.8633 23.6395 27.0383 23.2183 27.0383 23.0308V20.3783L23.047 22.167C22.9264 22.2214 22.7956 22.2495 22.6633 22.2495C22.5309 22.2495 22.4001 22.2214 22.2795 22.167L17.6633 20.0995V22.1783C18.0333 22.3095 18.382 22.522 18.6783 22.8183C19.2258 23.3658 19.5383 24.142 19.5383 25.0633V28.8133C19.5383 29.0619 19.4395 29.3004 19.2637 29.4762C19.0879 29.652 18.8494 29.7508 18.6008 29.7508H14.8508C14.6021 29.7508 14.3637 29.652 14.1878 29.4762C14.012 29.3004 13.9133 29.0619 13.9133 28.8133V25.0633C13.9133 24.142 14.2258 23.3658 14.7733 22.8183C15.0695 22.522 15.4183 22.3095 15.7883 22.1783V19.257L13.217 18.1045C13.0523 18.0304 12.9124 17.9103 12.8143 17.7586C12.7162 17.6069 12.6641 17.4302 12.6641 17.2495C12.6641 17.0689 12.7162 16.8921 12.8143 16.7404C12.9124 16.5887 13.0523 16.4686 13.217 16.3945L22.2795 12.332ZM15.892 17.2495L22.6633 20.2845L29.4333 17.2495L22.6633 14.2145L15.892 17.2495ZM15.7883 25.062V27.8745H17.6633V25.062C17.6633 24.577 17.507 24.2983 17.3508 24.1433C17.2687 24.0615 17.1711 23.997 17.0638 23.9534C16.9565 23.9099 16.8416 23.8881 16.7258 23.8895C16.4921 23.8881 16.2673 23.9794 16.1008 24.1433C15.9445 24.2983 15.7883 24.577 15.7883 25.062Z" fill="#9A6700"/>
</g>
</svg>
